<svg width="140" height="45" viewBox="0 0 140 45" fill="none" xmlns="http://www.w3.org/2000/svg">
    <path fill-rule="evenodd" clip-rule="evenodd"
        d="M130.828 0.659722C130.751 1.02264 130.176 4.03819 129.55 7.36111C128.923 10.684 128.389 13.4265 128.363 13.4554C128.337 13.4843 127.642 13.3944 126.818 13.2557C122.277 12.4907 117.342 13.6525 113.444 16.4039C109.717 19.0354 106.722 23.7056 105.681 28.5099C104.033 36.1124 106.505 42.4457 111.795 44.1783C112.692 44.4722 113.07 44.5132 114.833 44.5082C116.737 44.5028 116.92 44.4776 118.167 44.0497C118.892 43.8007 119.915 43.3429 120.44 43.0325C121.486 42.4138 123.141 40.9144 123.951 39.8515C124.236 39.4782 124.489 39.1931 124.514 39.2179C124.564 39.2676 124.327 42.3556 124.201 43.2986L124.122 43.8889H128.218H132.313L132.394 43.1597C132.439 42.7588 132.539 41.7431 132.617 40.9028C133.04 36.3535 133.263 35.019 136.012 20.625C136.961 15.6597 138.21 9.09722 138.789 6.04167C139.368 2.98611 139.875 0.376806 139.916 0.243056C139.986 0.015 139.712 0 135.479 0H130.967L130.828 0.659722ZM32.75 1.25292C30.5272 1.56097 28.2408 2.25042 26.4306 3.15847C22.7411 5.00931 20.2225 8.08903 19.345 11.8226C19.0226 13.1947 19.0203 15.8554 19.3404 17.0713C20.0132 19.6268 21.8379 21.8956 24.9476 24.0433C25.4576 24.3956 26.9261 25.2686 28.211 25.9832C29.4957 26.6978 30.9368 27.6042 31.4135 27.9974C33.3882 29.6263 33.8776 31.4911 32.8756 33.5675C32.2546 34.8542 30.5771 35.8493 28.4082 36.2178C27.326 36.4017 26.8312 36.4114 25.25 36.2801C22.8969 36.0847 21.2051 35.6554 18.7999 34.6436C17.7607 34.2064 16.8879 33.8735 16.8603 33.9036C16.7468 34.0272 14 40.8656 14 41.0243C14 41.4993 17.8306 43.0658 20.1111 43.5235C23.6715 44.2379 28.6887 44.1533 31.9622 43.3239C36.4622 42.1836 40.0325 39.4197 41.7181 35.7715C42.5731 33.9211 42.81 32.7126 42.8092 30.2083C42.8085 28.1669 42.7781 27.8957 42.4356 26.875C41.9311 25.3718 41.2092 24.1922 40.0124 22.9158C38.8199 21.644 37.8287 20.9415 34.1201 18.7389C29.3401 15.9 28.4103 14.8981 28.6125 12.8047C28.7425 11.4585 29.6535 10.2986 31.1357 9.59181C32.3706 9.00306 33.574 8.83556 35.8693 8.93333C37.9992 9.02389 38.885 9.21319 41.1889 10.0696C41.9725 10.3608 42.6432 10.5697 42.6792 10.5338C42.7726 10.4404 45.3889 3.46125 45.3889 3.30556C45.3889 3.10986 43.4814 2.26958 42.3036 1.94653C40.3146 1.40083 38.9726 1.22931 36.2917 1.17819C34.8403 1.15056 33.2465 1.18417 32.75 1.25292ZM60.8056 13.1983C58.2735 13.5525 55.4228 14.6288 53.4267 15.9843C52.2829 16.761 50.3136 18.6629 49.3486 19.9228C47.1349 22.8131 45.6447 26.8096 45.4358 30.4167L45.3515 31.875L47.0158 29.6528C49.6797 26.0958 51.5847 24.2156 54.6619 22.1057C55.5676 21.4847 56.4443 20.8321 56.6103 20.6556L56.9118 20.3344L55.5835 18.9172C54.631 17.9011 54.3294 17.5 54.5182 17.5C55.0175 17.5 68.225 18.4843 68.2651 18.5244C68.2874 18.5467 66.5086 21.1607 64.3125 24.3333C62.1163 27.5061 60.3008 30.0546 60.2782 29.9965C60.2554 29.9385 60.0931 29.0396 59.9172 27.999C59.7415 26.9583 59.5597 26.069 59.5135 26.0226C59.4121 25.9214 58.4524 26.4656 57.1139 27.3833C55.909 28.2096 52.6099 31.5433 51.2258 33.3333C50.1938 34.6681 48.0494 37.8478 47.5449 38.7918C47.2739 39.2985 47.2738 39.3124 47.5347 39.7968C47.9376 40.545 49.814 42.259 50.8889 42.8606C53.2886 44.2038 55.5447 44.6479 59.4574 44.5476C63.2335 44.451 65.7632 43.9585 68.6875 42.751L69.6944 42.3351L69.6874 41.619C69.6785 40.7101 69.2042 35.9912 69.1126 35.8996C69.0749 35.8618 68.581 36.0226 68.015 36.2568C65.8244 37.1635 63.3186 37.6403 60.7608 37.6368C58.1453 37.6333 56.4006 37.0221 55.2022 35.6893C54.5414 34.9542 54 33.6365 54 32.7632V32.3611H55.9167C60.0415 32.3611 63.6901 31.8765 66.409 30.9675C68.2314 30.3582 69.2065 29.8593 70.4208 28.9154C72.5112 27.2903 73.7069 24.5606 73.5385 21.7976C73.2728 17.441 70.8425 14.6249 66.3483 13.466C65.0182 13.1231 62.2872 12.9911 60.8056 13.1983ZM92.8519 13.2756C90.2739 13.7415 88.2629 14.8971 86.1158 17.1458C84.725 18.6026 84.7217 18.6049 84.7878 18.0878C85.1672 15.1206 85.3183 13.7257 85.2661 13.6736C85.1507 13.5582 77.4894 13.6097 77.4174 13.7264C77.3782 13.7899 77.1842 14.8679 76.9861 16.1222C76.4628 19.4378 75.5179 24.7188 74.3292 30.9722C73.4762 35.4593 72.8329 38.9113 71.9933 43.5069L71.9236 43.8889H76.4075H80.8915L81.2811 41.7708C83.3894 30.3097 84.1072 27.1296 84.9769 25.3982C86.0105 23.3403 87.7633 21.3267 89.0729 20.6928C89.756 20.3621 91.3221 20.1682 91.9785 20.3329C92.6544 20.5025 93.4265 21.3539 93.6729 22.2014C93.9376 23.1119 93.8729 25.4426 93.5317 27.2917C93.4189 27.9028 93.0051 30.0903 92.6122 32.1528C90.8432 41.439 90.4119 43.8139 90.4758 43.9172C90.5651 44.0617 99.016 44.0575 99.2439 43.9128C99.3467 43.8475 99.9032 41.236 100.598 37.5607C101.246 34.1281 101.991 30.1944 102.254 28.8194C102.985 24.9844 103.212 22.8863 103.131 20.7013C103.075 19.1674 102.997 18.6329 102.711 17.8103C101.881 15.4283 100.245 13.8893 97.8707 13.2574C96.9222 13.0049 94.2962 13.0144 92.8519 13.2756ZM126.153 20.3538C126.773 20.6592 126.983 20.8349 126.972 21.0417C126.944 21.6199 125.502 29.0144 125.177 30.2476C124.357 33.3621 122.735 35.736 120.652 36.8697C119.651 37.4146 118.095 37.5265 117.175 37.1199C115.269 36.2765 114.451 34.3669 114.601 31.1111C114.813 26.5371 117.246 22.1475 120.441 20.5744C121.663 19.9728 122.193 19.8696 123.861 19.9092C125.157 19.9397 125.412 19.9894 126.153 20.3538Z"
        fill="#4EBAEA" />
    <path fill-rule="evenodd" clip-rule="evenodd"
        d="M9.04014 6.10354C7.54986 6.42034 6.1257 7.55826 5.42375 8.99298C5.07764 9.70034 5.03514 9.93854 5.03389 11.1759C5.03264 12.4142 5.07583 12.6585 5.43167 13.429C5.89736 14.4373 7.00861 15.5658 7.94208 15.9788C10.6142 17.1608 13.6982 16.0037 14.9408 13.353C15.2599 12.6723 15.3101 12.3848 15.3096 11.2453C15.3089 10.0842 15.2606 9.82117 14.9067 9.0534C13.9172 6.90673 11.3453 5.61354 9.04014 6.10354ZM4.74083 18.1571C4.33931 18.4253 4.45958 17.8448 1.55292 33.537C0.972778 36.669 0.386111 39.8408 0.249028 40.5856L0 41.9398H4.70375C7.29083 41.9398 9.4075 41.9095 9.4075 41.8724C9.4075 41.8355 10.4388 36.502 11.6992 30.0205C12.9596 23.5388 13.9908 18.1941 13.9908 18.1433C13.9908 18.0165 4.93125 18.0299 4.74083 18.1571Z"
        fill="#1761AF" />
</svg>