<svg xmlns="http://www.w3.org/2000/svg" xmlns:xlink="http://www.w3.org/1999/xlink" preserveAspectRatio="xMidYMid meet"
    width="300" height="300" viewBox="0 0 1080 400" style="width:30%;height:30%">
    <defs>
        <animate repeatCount="indefinite" dur="3s" begin="0s" xlink:href="#_R_G_L_6_G" fill="freeze"
            attributeName="opacity" from="0" to="0" keyTimes="0;0.6555556;0.7666667;0.8777778;0.9944444;1"
            values="0;0;1;1;0;0"
            keySplines="0.167 0.167 0.833 0.833;0.167 0.167 0.833 0.833;0.167 0.167 0.833 0.833;0.167 0.167 0.833 0.833;0 0 0 0"
            calcMode="spline" />
        <animateMotion repeatCount="indefinite" dur="3s" begin="0s" xlink:href="#_R_G_L_6_G" fill="freeze"
            keyTimes="0;0.6555556;0.7666667;1"
            path="M780 198.5 C780,198.5 780,198.5 780,198.5 C780,198.5 805,198.5 805,198.5 C805,198.5 805,198.5 805,198.5 "
            keyPoints="0;0;1;1" keySplines="0.167 0.167 0.833 0.833;0.167 0.167 0.833 0.833;0 0 0 0"
            calcMode="spline" />
        <animateTransform repeatCount="indefinite" dur="3s" begin="0s" xlink:href="#_R_G_L_6_G" fill="freeze"
            attributeName="transform" from="-87 -111.5" to="-87 -111.5" type="translate" additive="sum" keyTimes="0;1"
            values="-87 -111.5;-87 -111.5" keySplines="0 0 1 1" calcMode="spline" />
        <animate repeatCount="indefinite" dur="3s" begin="0s" xlink:href="#_R_G_L_6_G_M" fill="freeze"
            attributeName="opacity" from="0" to="1" keyTimes="0;0.6555556;0.6555561;1" values="0;0;1;1"
            keySplines="0 0 0 0;0 0 0 0;0 0 0 0" calcMode="spline" />
        <animate repeatCount="indefinite" dur="3s" begin="0s" xlink:href="#_R_G_L_5_G" fill="freeze"
            attributeName="opacity" from="0" to="0" keyTimes="0;0.5444444;0.6555556;0.8777778;0.9944444;1"
            values="0;0;1;1;0;0"
            keySplines="0.167 0.167 0.833 0.833;0.167 0.167 0.833 0.833;0.167 0.167 0.833 0.833;0.167 0.167 0.833 0.833;0 0 0 0"
            calcMode="spline" />
        <animateMotion repeatCount="indefinite" dur="3s" begin="0s" xlink:href="#_R_G_L_5_G" fill="freeze"
            keyTimes="0;0.5444444;0.6555556;1"
            path="M603.5 229.5 C603.5,229.5 603.5,229.5 603.5,229.5 C603.5,229.5 628.5,229.5 628.5,229.5 C628.5,229.5 628.5,229.5 628.5,229.5 "
            keyPoints="0;0;1;1" keySplines="0.167 0.167 0.833 0.833;0.167 0.167 0.833 0.833;0 0 0 0"
            calcMode="spline" />
        <animateTransform repeatCount="indefinite" dur="3s" begin="0s" xlink:href="#_R_G_L_5_G" fill="freeze"
            attributeName="transform" from="-78.5 -77.5" to="-78.5 -77.5" type="translate" additive="sum" keyTimes="0;1"
            values="-78.5 -77.5;-78.5 -77.5" keySplines="0 0 1 1" calcMode="spline" />
        <animate repeatCount="indefinite" dur="3s" begin="0s" xlink:href="#_R_G_L_5_G_M" fill="freeze"
            attributeName="opacity" from="0" to="1" keyTimes="0;0.5444444;0.544445;1" values="0;0;1;1"
            keySplines="0 0 0 0;0 0 0 0;0 0 0 0" calcMode="spline" />
        <animate repeatCount="indefinite" dur="3s" begin="0s" xlink:href="#_R_G_L_4_G" fill="freeze"
            attributeName="opacity" from="0" to="0" keyTimes="0;0.4333333;0.5444444;0.8777778;0.9944444;1"
            values="0;0;1;1;0;0"
            keySplines="0.167 0.167 0.833 0.833;0.167 0.167 0.833 0.833;0.167 0.167 0.833 0.833;0.167 0.167 0.833 0.833;0 0 0 0"
            calcMode="spline" />
        <animateMotion repeatCount="indefinite" dur="3s" begin="0s" xlink:href="#_R_G_L_4_G" fill="freeze"
            keyTimes="0;0.4333333;0.5444444;1"
            path="M460.5 232 C460.5,232 460.5,232 460.5,232 C460.5,232 485.5,232 485.5,232 C485.5,232 485.5,232 485.5,232 "
            keyPoints="0;0;1;1" keySplines="0.167 0.167 0.833 0.833;0.167 0.167 0.833 0.833;0 0 0 0"
            calcMode="spline" />
        <animateTransform repeatCount="indefinite" dur="3s" begin="0s" xlink:href="#_R_G_L_4_G" fill="freeze"
            attributeName="transform" from="-71 -79" to="-71 -79" type="translate" additive="sum" keyTimes="0;1"
            values="-71 -79;-71 -79" keySplines="0 0 1 1" calcMode="spline" />
        <animate repeatCount="indefinite" dur="3s" begin="0s" xlink:href="#_R_G_L_4_G_M" fill="freeze"
            attributeName="opacity" from="0" to="1" keyTimes="0;0.4333333;0.4333339;1" values="0;0;1;1"
            keySplines="0 0 0 0;0 0 0 0;0 0 0 0" calcMode="spline" />
        <animate repeatCount="indefinite" dur="3s" begin="0s" xlink:href="#_R_G_L_3_G" fill="freeze"
            attributeName="opacity" from="0" to="0" keyTimes="0;0.3222222;0.4333333;0.8777778;0.9944444;1"
            values="0;0;1;1;0;0"
            keySplines="0.167 0.167 0.833 0.833;0.167 0.167 0.833 0.833;0.167 0.167 0.833 0.833;0.167 0.167 0.833 0.833;0 0 0 0"
            calcMode="spline" />
        <animateMotion repeatCount="indefinite" dur="3s" begin="0s" xlink:href="#_R_G_L_3_G" fill="freeze"
            keyTimes="0;0.3222222;0.4333333;1"
            path="M311 199.5 C311,199.5 311,199.5 311,199.5 C311,199.5 336,199.5 336,199.5 C336,199.5 336,199.5 336,199.5 "
            keyPoints="0;0;1;1" keySplines="0.167 0.167 0.833 0.833;0.167 0.167 0.833 0.833;0 0 0 0"
            calcMode="spline" />
        <animateTransform repeatCount="indefinite" dur="3s" begin="0s" xlink:href="#_R_G_L_3_G" fill="freeze"
            attributeName="transform" from="-78.5 -107.5" to="-78.5 -107.5" type="translate" additive="sum"
            keyTimes="0;1" values="-78.5 -107.5;-78.5 -107.5" keySplines="0 0 1 1" calcMode="spline" />
        <animate repeatCount="indefinite" dur="3s" begin="0s" xlink:href="#_R_G_L_3_G_M" fill="freeze"
            attributeName="opacity" from="0" to="1" keyTimes="0;0.3222222;0.3222228;1" values="0;0;1;1"
            keySplines="0 0 0 0;0 0 0 0;0 0 0 0" calcMode="spline" />
        <animate repeatCount="indefinite" dur="3s" begin="0s" xlink:href="#_R_G_L_2_G" fill="freeze"
            attributeName="opacity" from="1" to="0" keyTimes="0;0.8777778;0.9944444;1" values="1;1;0;0"
            keySplines="0.167 0.167 0.833 0.833;0.167 0.167 0.833 0.833;0 0 0 0" calcMode="spline" />
        <animateTransform repeatCount="indefinite" dur="3s" begin="0s" xlink:href="#_R_G_L_2_G" fill="freeze"
            attributeName="transform" from="0 0" to="1 1" type="scale" additive="sum" keyTimes="0;0.1555556;0.3222222;1"
            values="0 0;0 0;1 1;1 1" keySplines="0.167 0.167 0.833 0.833;0.167 0.167 0.833 0.833;0 0 0 0"
            calcMode="spline" />
        <animateTransform repeatCount="indefinite" dur="3s" begin="0s" xlink:href="#_R_G_L_2_G" fill="freeze"
            attributeName="transform" from="-26.5 -118.5" to="-26.5 -118.5" type="translate" additive="sum"
            keyTimes="0;1" values="-26.5 -118.5;-26.5 -118.5" keySplines="0 0 1 1" calcMode="spline" />
        <animate repeatCount="indefinite" dur="3s" begin="0s" xlink:href="#_R_G_L_2_G_M" fill="freeze"
            attributeName="opacity" from="0" to="1" keyTimes="0;0.1555556;0.1555561;1" values="0;0;1;1"
            keySplines="0 0 0 0;0 0 0 0;0 0 0 0" calcMode="spline" />
        <animate repeatCount="indefinite" dur="3s" begin="0s" xlink:href="#_R_G_L_1_G" fill="freeze"
            attributeName="opacity" from="1" to="0" keyTimes="0;0.8777778;0.9944444;1" values="1;1;0;0"
            keySplines="0.167 0.167 0.833 0.833;0.167 0.167 0.833 0.833;0 0 0 0" calcMode="spline" />
        <animateMotion repeatCount="indefinite" dur="3s" begin="0s" xlink:href="#_R_G_L_1_G" fill="freeze"
            keyTimes="0;0.0555556;0.1;0.1277778;0.1555556;0.3222222;1"
            path="M449.5 426.5 C449.5,426.5 398,43.62 325.5,43.12 C253,42.62 217.5,271.5 217.5,271.5 C217.5,271.5 217.5,263.5 217.5,263.5 C217.5,263.5 217.5,271.5 217.5,271.5 C217.5,271.5 241.5,144 241.5,144 C241.5,144 241.5,144 241.5,144 "
            keyPoints="0;0.5;0.82;0.83;0.84;1;1"
            keySplines="0.167 0.167 0.2 0.952;0.8 0.06 0.833 0.833;0.167 0.167 0.833 0.833;0.167 0.167 0.833 0.833;0.167 0.167 0.833 0.833;0 0 0 0"
            calcMode="spline" />
        <animateTransform repeatCount="indefinite" dur="3s" begin="0s" xlink:href="#_R_G_L_1_G" fill="freeze"
            attributeName="transform" from="-26 -26.5" to="-26 -26.5" type="translate" additive="sum" keyTimes="0;1"
            values="-26 -26.5;-26 -26.5" keySplines="0 0 1 1" calcMode="spline" />
        <animate repeatCount="indefinite" dur="3s" begin="0s" xlink:href="#_R_G_L_0_G_D_0_P_0" fill="freeze"
            attributeName="width" attributeType="XML" from="0" to="0"
            keyTimes="0;0.2222222;0.4444444;0.6666667;0.9444444;1" values="0;462;0;462;0;0"
            keySplines="0.167 0.167 0.833 0.833;0.167 0.167 0.833 0.833;0.167 0.167 0.833 0.833;0.167 0.167 0.833 0.833;0 0 0 0"
            calcMode="spline" />
        <animate repeatCount="indefinite" dur="3s" begin="0s" xlink:href="#_R_G_L_0_G_D_0_P_0" fill="freeze"
            attributeName="height" attributeType="XML" from="4" to="4"
            keyTimes="0;0.2222222;0.4444444;0.6666667;0.9444444;1" values="4;4;4;4;4;4"
            keySplines="0.167 0.167 0.833 0.833;0.167 0.167 0.833 0.833;0.167 0.167 0.833 0.833;0.167 0.167 0.833 0.833;0 0 0 0"
            calcMode="spline" />
        <animateTransform repeatCount="indefinite" dur="3s" begin="0s" xlink:href="#_R_G_L_0_G_D_0_P_0" fill="freeze"
            attributeName="transform" from="0 -2" to="0 -2" type="translate" additive="sum"
            keyTimes="0;0.2222222;0.4444444;0.6666667;0.9444444;1" values="0 -2;-231 -2;0 -2;-231 -2;0 -2;0 -2"
            keySplines="0.167 0.167 0.833 0.833;0.167 0.167 0.833 0.833;0.167 0.167 0.833 0.833;0.167 0.167 0.833 0.833;0 0 0 0"
            calcMode="spline" />
        <animate repeatCount="indefinite" dur="3s" begin="0s" xlink:href="#_R_G_L_0_G_D_1_P_0" fill="freeze"
            attributeName="width" attributeType="XML" from="0" to="0"
            keyTimes="0;0.2222222;0.4444444;0.6666667;0.9444444;1" values="0;462;0;462;0;0"
            keySplines="0.167 0.167 0.833 0.833;0.167 0.167 0.833 0.833;0.167 0.167 0.833 0.833;0.167 0.167 0.833 0.833;0 0 0 0"
            calcMode="spline" />
        <animate repeatCount="indefinite" dur="3s" begin="0s" xlink:href="#_R_G_L_0_G_D_1_P_0" fill="freeze"
            attributeName="height" attributeType="XML" from="4" to="4"
            keyTimes="0;0.2222222;0.4444444;0.6666667;0.9444444;1" values="4;4;4;4;4;4"
            keySplines="0.167 0.167 0.833 0.833;0.167 0.167 0.833 0.833;0.167 0.167 0.833 0.833;0.167 0.167 0.833 0.833;0 0 0 0"
            calcMode="spline" />
        <animateTransform repeatCount="indefinite" dur="3s" begin="0s" xlink:href="#_R_G_L_0_G_D_1_P_0" fill="freeze"
            attributeName="transform" from="0 -2" to="0 -2" type="translate" additive="sum"
            keyTimes="0;0.2222222;0.4444444;0.6666667;0.9444444;1" values="0 -2;-231 -2;0 -2;-231 -2;0 -2;0 -2"
            keySplines="0.167 0.167 0.833 0.833;0.167 0.167 0.833 0.833;0.167 0.167 0.833 0.833;0.167 0.167 0.833 0.833;0 0 0 0"
            calcMode="spline" />
        <animate attributeType="XML" attributeName="opacity" dur="3s" from="0" to="1" xlink:href="#time_group" />
    </defs>
    <g id="_R_G">
        <g id="_R_G_L_6_G_M">
            <g id="_R_G_L_6_G">
                <path id="_R_G_L_6_G_D_0_P_0" fill="#63c0ec" fill-opacity="1" fill-rule="nonzero"
                    d=" M151.61 0 C151.61,0 129.01,0 129.01,0 C129.01,0 128.21,3.2 128.21,3.2 C127.81,5 124.91,20.1 121.81,36.7 C118.71,53.3 116.01,67 115.91,67.2 C115.81,67.3 112.31,66.9 108.21,66.2 C85.51,62.4 60.81,68.2 41.31,82 C22.61,95.2 7.71,118.5 2.51,142.6 C-5.69,180.6 6.61,212.3 33.11,221 C37.61,222.5 39.51,222.7 48.31,222.7 C57.81,222.7 58.71,222.5 65.01,220.4 C68.61,219.2 73.71,216.9 76.41,215.3 C81.61,212.2 89.91,204.7 94.01,199.4 C95.41,197.5 96.71,196.1 96.81,196.2 C97.01,196.4 95.91,211.9 95.21,216.6 C95.21,216.6 94.81,219.6 94.81,219.6 C94.81,219.6 115.31,219.6 115.31,219.6 C115.31,219.6 135.81,219.6 135.81,219.6 C135.81,219.6 136.21,216 136.21,216 C136.41,214 136.91,208.9 137.31,204.7 C139.41,181.9 140.51,175.3 154.31,103.2 C159.01,78.4 165.31,45.5 168.21,30.2 C171.11,14.9 173.61,1.9 173.81,1.2 C174.21,0.1 172.81,0 151.61,0z  M99.91 151.2 C95.81,166.8 87.71,178.7 77.31,184.3 C72.31,187 64.51,187.6 59.91,185.6 C50.41,181.4 46.31,171.8 47.01,155.5 C48.11,132.6 60.21,110.7 76.21,102.8 C82.31,99.8 85.01,99.3 93.31,99.5 C99.81,99.7 101.11,99.9 104.81,101.7 C107.91,103.2 109.01,104.1 108.91,105.1 C108.81,108 101.51,145 99.91,151.2z " />
            </g>
        </g>
        <g id="_R_G_L_5_G_M">
            <g id="_R_G_L_5_G">
                <path id="_R_G_L_5_G_D_0_P_0" fill="#63c0ec" fill-opacity="1" fill-rule="nonzero"
                    d=" M104.7 0.98 C91.8,3.28 81.7,9.08 71,20.38 C64,27.67 64,27.68 64.4,25.08 C66.3,10.28 67.1,3.28 66.8,2.98 C66.2,2.38 27.9,2.68 27.5,3.28 C27.3,3.58 26.3,8.98 25.3,15.28 C22.7,31.88 18,58.28 12,89.58 C7.7,112.08 4.5,129.28 0.3,152.28 C0.3,152.28 0,154.18 0,154.18 C0,154.18 22.4,154.18 22.4,154.18 C22.4,154.18 44.8,154.18 44.8,154.18 C44.8,154.18 46.7,143.57 46.7,143.57 C57.2,86.28 60.8,70.28 65.2,61.68 C70.4,51.38 79.1,41.28 85.7,38.18 C89.1,36.48 97,35.58 100.2,36.38 C103.6,37.17 107.4,41.48 108.7,45.68 C110,50.28 109.7,61.88 108,71.18 C107.4,74.28 105.4,85.18 103.4,95.48 C94.5,141.98 92.4,153.78 92.7,154.38 C93.1,155.07 135.4,155.07 136.6,154.38 C137.1,154.07 139.9,140.98 143.4,122.58 C146.6,105.38 150.4,85.68 151.7,78.88 C155.4,59.68 156.5,49.18 156.1,38.28 C155.8,30.58 155.4,27.98 154,23.78 C149.9,11.88 141.7,4.18 129.8,0.98 C125,-0.32 111.9,-0.32 104.7,0.98z " />
            </g>
        </g>
        <g id="_R_G_L_4_G_M">
            <g id="_R_G_L_4_G">
                <path id="_R_G_L_4_G_D_0_P_0" fill="#63c0ec" fill-opacity="1" fill-rule="nonzero"
                    d=" M77.3 0.49 C64.6,2.29 50.4,7.69 40.4,14.39 C34.7,18.29 24.8,27.79 20,34.09 C8.9,48.59 1.5,68.59 0.4,86.59 C0.4,86.59 0,93.89 0,93.89 C0,93.89 8.3,82.79 8.3,82.79 C21.6,64.99 31.2,55.59 46.6,44.99 C51.1,41.89 55.5,38.59 56.3,37.69 C56.3,37.69 57.8,36.09 57.8,36.09 C57.8,36.09 51.2,28.99 51.2,28.99 C46.4,23.89 44.9,21.89 45.9,21.89 C48.4,21.89 114.5,26.79 114.7,26.99 C114.8,27.09 105.9,40.19 94.9,56.09 C83.9,71.99 74.8,84.69 74.7,84.39 C74.6,84.09 73.8,79.59 72.9,74.39 C72,69.19 71.1,64.69 70.9,64.49 C70.4,63.99 65.6,66.69 58.9,71.29 C52.9,75.39 36.4,92.09 29.4,101.09 C24.2,107.79 13.5,123.69 11,128.39 C9.6,130.89 9.6,130.99 10.9,133.39 C12.9,137.09 22.3,145.69 27.7,148.69 C39.7,155.39 51,157.59 70.6,157.09 C89.5,156.59 102.2,154.19 116.8,148.09 C116.8,148.09 121.8,145.99 121.8,145.99 C121.8,145.99 121.8,142.39 121.8,142.39 C121.8,137.89 119.4,114.19 118.9,113.79 C118.7,113.59 116.2,114.39 113.4,115.59 C102.4,120.09 89.9,122.49 77.1,122.49 C64,122.49 55.3,119.39 49.3,112.79 C46,109.09 43.3,102.49 43.3,98.19 C43.3,98.19 43.3,96.19 43.3,96.19 C43.3,96.19 52.9,96.19 52.9,96.19 C73.5,96.19 91.8,93.79 105.4,89.19 C114.5,86.19 119.4,83.69 125.5,78.89 C136,70.79 141.9,57.09 141.1,43.29 C139.8,21.49 127.6,7.39 105.1,1.59 C98.4,0.09 84.8,-0.51 77.3,0.49z " />
            </g>
        </g>
        <g id="_R_G_L_3_G_M">
            <g id="_R_G_L_3_G">
                <path id="_R_G_L_3_G_D_0_P_0" fill="#63c0ec" fill-opacity="1" fill-rule="nonzero"
                    d=" M93.8 0.48 C82.7,1.98 71.2,5.48 62.2,9.98 C43.7,19.28 31.1,34.68 26.7,53.28 C25.1,60.18 25.1,73.48 26.7,79.58 C30.1,92.38 39.2,103.68 54.8,114.48 C57.4,116.28 64.7,120.58 71.1,124.18 C77.5,127.78 84.7,132.28 87.1,134.28 C97,142.38 99.4,151.78 94.4,162.18 C91.3,168.58 82.9,173.58 72,175.48 C66.6,176.38 64.1,176.48 56.2,175.78 C44.4,174.78 36,172.68 23.9,167.58 C18.7,165.38 14.3,163.68 14.2,163.88 C13.7,164.38 0,198.68 0,199.38 C0,201.78 19.2,209.58 30.6,211.88 C48.4,215.48 73.5,215.08 89.9,210.88 C112.4,205.18 130.3,191.38 138.7,173.08 C143,163.78 144.2,157.78 144.2,145.28 C144.2,135.08 144,133.68 142.3,128.58 C139.8,121.08 136.2,115.18 130.2,108.78 C124.2,102.38 119.3,98.88 100.7,87.88 C76.7,73.68 72.1,68.68 73.1,58.28 C73.8,51.58 78.3,45.78 85.7,42.18 C91.9,39.28 97.9,38.38 109.4,38.88 C120.1,39.38 124.5,40.28 136,44.58 C139.9,46.08 143.3,47.08 143.5,46.88 C143.9,46.38 157,11.48 157,10.68 C157,9.68 147.5,5.48 141.6,3.88 C131.6,1.18 124.9,0.28 111.5,0.08 C104.2,-0.12 96.3,0.08 93.8,0.48z " />
            </g>
        </g>
        <g id="_R_G_L_2_G_M">
            <g id="_R_G_L_2_G" transform=" translate(216.5, 298)">
                <path id="_R_G_L_2_G_D_0_P_0" fill="#3e71b5" fill-opacity="1" fill-rule="nonzero"
                    d=" M23.7 0.49 C21.7,1.79 22.3,-1.11 7.7,77.39 C4.8,93.09 1.9,108.89 1.2,112.69 C1.2,112.69 0,119.49 0,119.49 C0,119.49 23.5,119.49 23.5,119.49 C36.4,119.49 47,119.29 47,119.19 C47,118.99 52.2,92.29 58.5,59.89 C64.8,27.49 70,0.69 70,0.49 C70,-0.21 24.7,-0.11 23.7,0.49z " />
            </g>
        </g>
        <g id="_R_G_L_1_G">
            <path id="_R_G_L_1_G_D_0_P_0" fill="#3e71b5" fill-opacity="1" fill-rule="nonzero"
                d=" M20.1 0.5 C12.6,2.1 5.5,7.8 2,15 C0.3,18.5 0.1,19.7 0,25.9 C0,32.1 0.2,33.3 2,37.2 C4.3,42.2 9.9,47.9 14.6,50 C28,55.9 43.4,50.1 49.6,36.9 C51.2,33.5 51.4,32.1 51.4,26.4 C51.4,20.6 51.2,19.3 49.4,15.4 C44.5,4.5 31.7,-1.9 20.1,0.5z " />
        </g>
        <g id="_R_G_L_0_G" transform=" translate(191, 328) scale(1.43316, 1) translate(351.918, -138)">
            <g id="_R_G_L_0_G_D_0_P_0_G_0_T_0" transform=" translate(-121, 138) translate(0, 0)">
                <rect id="_R_G_L_0_G_D_0_P_0" fill="#62c1ed" fill-opacity="1" fill-rule="nonzero" x="0" y="0" rx="4"
                    ry="4" />
            </g>
            <g id="_R_G_L_0_G_D_1_P_0_G_0_T_0" transform=" translate(-121, 138) translate(0, 0)">
                <rect id="_R_G_L_0_G_D_1_P_0" stroke="#62c1ed" stroke-linecap="round" stroke-linejoin="round"
                    fill="none" stroke-width="0" stroke-opacity="1" x="0" y="0" rx="4" ry="4" />
            </g>
        </g>
    </g>
    <g id="time_group" />
</svg>