<svg width="32" height="32" viewBox="0 0 32 32" fill="none" xmlns="http://www.w3.org/2000/svg">
<path d="M0 16C0 7.16344 7.16344 0 16 0C24.8366 0 32 7.16344 32 16C32 24.8366 24.8366 32 16 32C7.16344 32 0 24.8366 0 16Z" fill="#27B973"/>
<path d="M16 24.9582C11.0583 24.9582 7.04166 20.9415 7.04166 15.9998C7.04166 11.0582 11.0583 7.0415 16 7.0415C20.9417 7.0415 24.9583 11.0582 24.9583 15.9998C24.9583 20.9415 20.9417 24.9582 16 24.9582ZM16 8.2915C11.75 8.2915 8.29166 11.7498 8.29166 15.9998C8.29166 20.2498 11.75 23.7082 16 23.7082C20.25 23.7082 23.7083 20.2498 23.7083 15.9998C23.7083 11.7498 20.25 8.2915 16 8.2915Z" fill="white"/>
<path d="M14.8167 18.9832C14.65 18.9832 14.4917 18.9165 14.375 18.7998L12.0167 16.4415C11.775 16.1998 11.775 15.7998 12.0167 15.5582C12.2583 15.3165 12.6583 15.3165 12.9 15.5582L14.8167 17.4748L19.1 13.1915C19.3417 12.9498 19.7417 12.9498 19.9833 13.1915C20.225 13.4332 20.225 13.8332 19.9833 14.0748L15.2583 18.7998C15.1417 18.9165 14.9833 18.9832 14.8167 18.9832Z" fill="white"/>
</svg>
