<svg width="198" height="198" viewBox="0 0 198 198" fill="none" xmlns="http://www.w3.org/2000/svg">
<path d="M173.25 160.875H24.75V94.875L99 24.75L173.25 94.875V160.875Z" fill="#00B1FF" fill-opacity="0.17"/>
<path d="M160.875 81.7966C160.875 83.5784 158.721 84.4707 157.461 83.2108L140.836 66.5858C140.461 66.2107 140.25 65.702 140.25 65.1716V39.125C140.25 38.0204 141.145 37.125 142.25 37.125H158.875C159.98 37.125 160.875 38.0204 160.875 39.125V81.7966ZM21.5 162.875C21.5 161.77 22.3954 160.875 23.5 160.875H174C175.105 160.875 176 161.77 176 162.875V179.5C176 180.605 175.105 181.5 174 181.5H23.5C22.3954 181.5 21.5 180.605 21.5 179.5V162.875Z" fill="#2D6FB5" fill-opacity="0.53"/>
<path d="M101.731 20.292C100.193 18.8565 97.8069 18.8568 96.2699 20.2926L14.1336 97.0234C12.5347 98.517 12.4326 101.018 13.9044 102.637L16.7749 105.795C18.2743 107.444 20.8326 107.549 22.4627 106.029L96.2726 37.1981C97.8088 35.7655 100.191 35.7653 101.728 37.1975L175.037 105.531C176.668 107.05 179.225 106.944 180.724 105.295L183.595 102.138C185.067 100.518 184.965 98.017 183.365 96.5235L101.731 20.292Z" fill="#2D6FB5"/>
<path d="M74.25 117.5C74.25 116.395 75.1454 115.5 76.25 115.5H121.75C122.855 115.5 123.75 116.395 123.75 117.5V179.5C123.75 180.605 122.855 181.5 121.75 181.5H76.25C75.1454 181.5 74.25 180.605 74.25 179.5V117.5Z" fill="#2D6FB5"/>
<path d="M86.625 72.125C86.625 71.0204 87.5204 70.125 88.625 70.125H109.375C110.48 70.125 111.375 71.0204 111.375 72.125V92.875C111.375 93.9796 110.48 94.875 109.375 94.875H88.625C87.5204 94.875 86.625 93.9796 86.625 92.875V72.125Z" fill="#01579B"/>
<path d="M113.438 146.438C112.2 146.438 111.375 147.262 111.375 148.5V156.75C111.375 157.988 112.2 158.812 113.438 158.812C114.675 158.812 115.5 157.988 115.5 156.75V148.5C115.5 147.262 114.675 146.438 113.438 146.438Z" fill="#00B1FF"/>
</svg>
