<svg width="32" height="32" viewBox="0 0 32 32" fill="none" xmlns="http://www.w3.org/2000/svg">
<path d="M0 16C0 7.16344 7.16344 0 16 0C24.8366 0 32 7.16344 32 16C32 24.8366 24.8366 32 16 32C7.16344 32 0 24.8366 0 16Z" fill="#DC3545"/>
<path d="M16 24.9582C11.0583 24.9582 7.04166 20.9415 7.04166 15.9998C7.04166 11.0582 11.0583 7.0415 16 7.0415C20.9417 7.0415 24.9583 11.0582 24.9583 15.9998C24.9583 20.9415 20.9417 24.9582 16 24.9582ZM16 8.2915C11.75 8.2915 8.29166 11.7498 8.29166 15.9998C8.29166 20.2498 11.75 23.7082 16 23.7082C20.25 23.7082 23.7083 20.2498 23.7083 15.9998C23.7083 11.7498 20.25 8.2915 16 8.2915Z" fill="white"/>
<path d="M13.6417 18.9831C13.4833 18.9831 13.325 18.9248 13.2 18.7998C12.9583 18.5581 12.9583 18.1581 13.2 17.9165L17.9167 13.1998C18.1583 12.9581 18.5583 12.9581 18.8 13.1998C19.0417 13.4415 19.0417 13.8415 18.8 14.0831L14.0833 18.7998C13.9667 18.9248 13.8 18.9831 13.6417 18.9831Z" fill="white"/>
<path d="M18.3583 18.9831C18.2 18.9831 18.0417 18.9248 17.9167 18.7998L13.2 14.0831C12.9583 13.8415 12.9583 13.4415 13.2 13.1998C13.4417 12.9581 13.8417 12.9581 14.0833 13.1998L18.8 17.9165C19.0417 18.1581 19.0417 18.5581 18.8 18.7998C18.675 18.9248 18.5167 18.9831 18.3583 18.9831Z" fill="white"/>
</svg>
