<?xml version="1.0" encoding="utf-8"?>
<!-- Generator: Adobe Illustrator 24.0.0, SVG Export Plug-In . SVG Version: 6.00 Build 0)  -->
<svg version="1.1" id="Layer_1" xmlns="http://www.w3.org/2000/svg" xmlns:xlink="http://www.w3.org/1999/xlink" x="0px" y="0px"
	 viewBox="0 0 500 500" style="enable-background:new 0 0 500 500;" xml:space="preserve">
<style type="text/css">
	.st0{fill:none;stroke:#000000;stroke-width:0.75;stroke-miterlimit:10;stroke-dasharray:9;}
	.st1{fill:url(#XMLID_16_);}
	.st2{fill:#50B8E9;}
	.st3{fill:url(#XMLID_18_);}
	.st4{fill:#0661AD;}
	.st5{fill:url(#XMLID_19_);}
	.st6{font-family:'Montserrat-ExtraBoldItalic';}
	.st7{font-size:67.5191px;}
</style>
<g>
	<linearGradient id="XMLID_16_" gradientUnits="userSpaceOnUse" x1="162.1662" y1="218.7304" x2="342.828" y2="218.7304">
		<stop  offset="0" style="stop-color:#50B8E9"/>
		<stop  offset="0.7246" style="stop-color:#0661AD"/>
	</linearGradient>
	<path id="XMLID_17_" class="st1" d="M265.79,155.44v-0.03c-0.74,0.01-0.65,0.02-0.93,0.02c-1.37,0-2.7,0.03-4.01,0.08
		c-18.49,0.78-30.83,6.97-35.07,15.98c-1.08,2.3-1.64,4.78-1.64,7.4c-0.21,24.32,56.71,19.96,82.35,44.07l0.02,0.02
		c0.46,0.44,0.91,0.87,1.35,1.33c0.87,0.91,1.72,1.84,2.54,2.84l0.01,0.02c0.69,0.9,1.38,1.78,2,2.74c3.98,6,6.35,13.38,6.35,22.64
		c0,16.53-6.09,30.57-17.09,41.34c-4.4,4.32-9.57,8.11-15.47,11.3c-10.77,5.86-23.92,9.77-38.95,11.42
		c-3.97,0.46-8.08,0.84-12.32,0.84h-0.19c-0.08,0-0.19,0.01-0.27-0.01c-0.35,0.02-0.7-0.01-1.06,0.01
		c-0.91,0.02-1.82,0.04-2.76,0.04c-31.11,0-52.39-9.28-68.48-21.28l11.43-9.58c17.46,12.81,38.76-4.6,61.41-4.6
		c1.08,0,2.12-0.02,3.16-0.07c8.45-0.25,15.69-1.6,21.45-3.88c9.53-3.78,14.95-10.13,14.95-18.43c0-25.53-66.05-18.31-87.81-50.69
		c-4.3-6.39-6.87-14.32-6.87-24.34c0-37.7,31.55-62.6,80.96-64.55c1.38-0.06,2.78-0.1,4.2-0.11v-0.01l1.69,0.01
		c0.16-0.01,0.31-0.01,0.47-0.01c0.19,0,0.38,0.01,0.58,0.01l2.62,0.01l72.42,0.27v35.13l-68.15,0.06L265.79,155.44z"/>
	<polygon id="XMLID_15_" class="st2" points="238.94,148.14 286.77,148.14 250.86,330.66 203.03,330.66 	"/>
	<linearGradient id="XMLID_18_" gradientUnits="userSpaceOnUse" x1="113.8539" y1="270.2227" x2="318.7675" y2="270.2227">
		<stop  offset="0" style="stop-color:#50B8E9"/>
		<stop  offset="0.7246" style="stop-color:#0661AD"/>
	</linearGradient>
	<path id="XMLID_14_" class="st3" d="M312.41,229.92c-0.62-0.96-1.29-1.87-1.99-2.74l-0.02-0.02c-0.81-1-1.66-1.93-2.53-2.85
		c-0.44-0.46-0.89-0.89-1.35-1.33c7.38,51.77-55.05,57.57-55.05,57.57c-5.73,0.89-4.71,1.15-13.17,1.4l-0.11-0.06h-79.96
		c-0.49,0-0.97,0.03-1.46,0.08l-17.66-0.02c-1.52,0-2.87,1.12-2.87,2.5v0.04c0,1.38,1.34,2.52,2.86,2.52l2.94,0.01
		c1.52,0,2.93,1.14,2.93,2.52v0.04c0,1.38-1.37,2.51-2.9,2.5l-9.61-0.03c-1.52,0-2.78,1.12-2.78,2.5v0.04c0,1.38,1.18,2.52,2.7,2.52
		l3.38,0.01c1.52,0,2.65,1.14,2.65,2.52v0.04c0,1.38-1.18,2.51-2.7,2.5l-10.42-0.03c-1.52,0-2.71,1.12-2.71,2.5v0.04
		c0,1.38,1.21,2.52,2.73,2.52l2.68,0.01c1.52,0,2.77,1.14,2.77,2.52v0.02c0,1.38-1.28,2.51-2.8,2.5l-11.32-0.03
		c-1.52,0-2.8,1.12-2.8,2.5v0.04c0,1.38,1.25,2.52,2.77,2.52l39.99,0.05c0.15,0,0.3,0.01,0.46,0.01l69.9,0.08l6.42,0.01v0
		c0,0,0,0,0,0l0.82,0c0.33,0,0.65-0.03,0.96-0.08c4.15-0.01,8.18-0.35,12.07-0.8c15.04-1.64,28.18-5.54,38.96-11.4
		c5.9-3.2,11.09-6.98,15.47-11.29c11.01-10.76,17.09-24.79,17.09-41.33C318.77,243.3,316.4,235.93,312.41,229.92z"/>
	<g id="XMLID_8_">
		<path id="XMLID_13_" class="st4" d="M397.73,122.64c0-1.38-1.24-2.52-2.76-2.52l-4.09-0.01c-1.52,0-2.77,1.12-2.78,2.5l0,0.04
			c0,1.38,1.24,2.52,2.76,2.52l4.09,0.01c1.52,0,2.77-1.12,2.78-2.5L397.73,122.64z"/>
		<path id="XMLID_11_" class="st4" d="M386.96,132.71c0-1.38-1.24-2.52-2.76-2.52l-0.88,0c-1.52,0-2.77,1.12-2.78,2.5l0,0.04
			c0,1.38,1.24,2.52,2.76,2.52l0.88,0c1.52,0,2.77-1.12,2.78-2.5L386.96,132.71z"/>
		<path id="XMLID_10_" class="st4" d="M391.25,142.85c0-1.38-1.24-2.52-2.76-2.52l-12.09-0.04c-1.52,0-2.77,1.12-2.78,2.5l0,0.04
			c0,1.38,1.24,2.52,2.76,2.52l12.09,0.04c1.52,0,2.77-1.12,2.78-2.5L391.25,142.85z"/>
		<path id="XMLID_9_" class="st4" d="M376.98,152.93c0-1.38-1.24-2.52-2.76-2.52l-4.56-0.01c-1.52,0-2.77,1.12-2.78,2.5l0,0.04
			c0,1.38,1.24,2.52,2.76,2.52l4.56,0.01c1.52,0,2.77-1.12,2.78-2.5L376.98,152.93z"/>
	</g>
	<g id="XMLID_3_">
		<path id="XMLID_7_" class="st2" d="M101.25,314.75c0,1.38,1.24,2.52,2.76,2.52l4.09,0.01c1.52,0,2.77-1.12,2.78-2.5l0-0.04
			c0-1.38-1.24-2.52-2.76-2.52l-4.09-0.01c-1.52,0-2.77,1.12-2.78,2.5L101.25,314.75z"/>
		<path id="XMLID_6_" class="st2" d="M112.02,304.68c0,1.38,1.24,2.52,2.76,2.52l0.88,0c1.52,0,2.77-1.12,2.78-2.5l0-0.04
			c0-1.38-1.24-2.52-2.76-2.52l-0.88,0c-1.52,0-2.77,1.12-2.78,2.5L112.02,304.68z"/>
		<path id="XMLID_5_" class="st2" d="M107.73,294.54c0,1.38,1.24,2.52,2.76,2.52l12.09,0.04c1.52,0,2.77-1.12,2.78-2.5l0-0.04
			c0-1.38-1.24-2.52-2.76-2.52L110.51,292c-1.52,0-2.77,1.12-2.78,2.5L107.73,294.54z"/>
		<path id="XMLID_4_" class="st2" d="M122.01,284.46c0,1.38,1.24,2.52,2.76,2.52l4.56,0.01c1.52,0,2.77-1.12,2.78-2.5l0-0.04
			c0-1.38-1.24-2.52-2.76-2.52l-4.56-0.01c-1.52,0-2.77,1.12-2.78,2.5L122.01,284.46z"/>
	</g>
	<path id="XMLID_2_" class="st2" d="M247.32,94.16c0-13.46,10.61-24.07,26.66-24.07c14.24,0,23.81,8.8,23.81,20.19
		c0,14.76-10.87,24.85-26.92,24.85C256.64,115.13,247.32,105.81,247.32,94.16z"/>
	<linearGradient id="XMLID_19_" gradientUnits="userSpaceOnUse" x1="179.9242" y1="166.197" x2="386.2193" y2="166.197">
		<stop  offset="0" style="stop-color:#50B8E9"/>
		<stop  offset="0.7246" style="stop-color:#0661AD"/>
	</linearGradient>
	<path id="XMLID_1_" class="st5" d="M383.52,120.08l-114.82-0.15c-0.21,0-0.41,0.02-0.61,0.04l-0.31,0c-0.19,0-0.38-0.01-0.57-0.01
		c-0.16,0-0.31,0-0.47,0.01l-1.69-0.01v0.01c-1.64,0.01-2.73,0.05-4.37,0.11v0.01c-49.12,2.02-80.76,26.89-80.76,64.53
		c0,10.02,2.11,18.17,9.53,27.83c-0.09-21.9,16.65-55.14,71.23-57.33v0.38c1.64-0.05,2.63-0.08,4-0.08c0.27,0,0.37-0.01,0.91-0.02
		v0.03l8.98-0.01l43.08-0.04l43.35,0.04c1.52,0,2.83-1.12,2.83-2.5v-0.04c0-1.38-1.27-2.52-2.79-2.52l-2.7-0.01
		c-1.52,0-2.69-1.14-2.69-2.52v-0.04c0-1.38,1.17-2.51,2.69-2.5l9.44,0.03c1.52,0,2.61-1.12,2.61-2.5v-0.04
		c0-1.38-1.11-2.52-2.63-2.52l-3.42-0.01c-1.52,0-2.69-1.14-2.69-2.52v-0.04c0-1.38,1.24-2.51,2.77-2.5l10.39,0.03
		c1.52,0,2.67-1.12,2.67-2.5v-0.04c0-1.38-1.14-2.52-2.66-2.52l-2.72-0.01c-1.52,0-2.8-1.14-2.8-2.52v-0.02
		c0-1.38,1.35-2.51,2.87-2.5l11.29,0.03c1.52,0,2.76-1.12,2.76-2.5v-0.04C386.22,121.22,385.04,120.09,383.52,120.08z"/>
	<text transform="matrix(1 0 0 1 21.4854 411.8142)" class="st2 st6 st7">iSend Global</text>
</g>
</svg>
