<?xml version="1.0" encoding="utf-8"?>
<!DOCTYPE svg PUBLIC "-//W3C//DTD SVG 1.0//EN" "http://www.w3.org/TR/2001/REC-SVG-20010904/DTD/svg10.dtd">
<svg version="1.0" xmlns="http://www.w3.org/2000/svg" width="512px" height="512px" viewBox="0 0 512 512" preserveAspectRatio="xMidYMid meet">
 <g fill="#000000">
  <path d="M242.3 510.9 c-15.1 -0.8 -19.3 -1.9 -22.7 -5.9 -4.1 -5 -5.1 -9.4 -3.1 -14.6 2.5 -6.5 7.4 -9.9 13.9 -9.8 48 1.3 66 -0.5 93.9 -9.3 66.4 -21 119 -70.5 143.6 -135.2 16 -41.9 18.8 -91.4 7.7 -135.2 -12.9 -51.3 -42.1 -94.9 -84.7 -126.5 -4 -3 -7.4 -5.2 -7.6 -5.1 -0.2 0.2 1.2 7.3 3.2 15.7 4.1 17.5 3.8 20.3 -1.9 26 -6.5 6.2 -17.3 5 -22.2 -2.5 -2.3 -3.6 -17.5 -70.2 -16.7 -73.5 0.9 -4 3.9 -8.4 7 -10.1 1.5 -0.9 18 -5.1 36.7 -9.4 37.4 -8.5 38.2 -8.6 44.1 -2.8 4.8 4.9 5.8 10.7 2.9 16.9 -2.5 5.3 -6.1 7.1 -20.5 10.4 -7.4 1.7 -14 3.3 -14.7 3.5 -0.8 0.3 2.9 3.6 8.5 7.8 53.2 39.8 87.4 96 99.4 163.4 3 16.8 3.8 52.6 1.5 71.3 -7 57.1 -32.6 110 -72.6 150 -52.4 52.4 -121 78.6 -195.7 74.9z"/>
  <path d="M82.5 499.6 c-5.3 -2.4 -9.5 -8.5 -9.5 -13.8 0 -4.1 3.9 -10.4 7.8 -12.5 2 -1.1 9.5 -3.3 16.6 -4.9 l13 -2.8 -3.5 -2.7 c-1.9 -1.5 -6.3 -5 -9.9 -7.9 -44.9 -35.6 -78.2 -89.8 -90 -146.2 -4.9 -23.7 -6.6 -57 -4 -80.3 11.6 -103.3 83.5 -188.9 183.2 -218 23.8 -6.9 44.2 -9.7 71.3 -9.7 20.5 0.1 30.8 1.3 34.4 4 8.4 6.3 8.3 18.2 -0.2 24.6 -2.1 1.6 -4.2 2.1 -8 2 -29 -0.7 -46.5 -0.5 -53.7 0.5 -31.7 4.4 -60.2 13.9 -85.2 28.4 -71.2 41.4 -113 113.7 -113.1 195.7 0 26.8 3.1 46 11.3 71.3 14.1 42.8 42 81.8 77.9 108.7 4.4 3.3 6.7 4.5 6.9 3.6 0.2 -0.7 -1.1 -7.3 -2.8 -14.5 -3.5 -15.5 -3.7 -19.4 -1 -23.9 5.7 -9.4 18.5 -9.5 25.1 -0.2 2.4 3.5 17.3 69.3 16.5 73.2 -0.8 3.9 -4.1 8.5 -7.4 10.2 -2.8 1.4 -68 16.6 -71 16.6 -0.9 -0.1 -3 -0.7 -4.7 -1.4z"/>
  <path d="M118.5 358.6 c-4.5 -2 -8.3 -7 -9 -11.9 -0.3 -2.3 -0.5 -44.8 -0.3 -94.4 0.3 -89.3 0.3 -90.2 2.4 -92.9 1.1 -1.5 3.3 -3.7 4.8 -4.8 2.7 -2.1 2.9 -2.1 141.4 -2.1 l138.7 0 3.3 2.3 c7.2 5.2 6.7 -1.7 6.7 101.2 0 90.7 0 92.6 -2 95.9 -1.1 1.9 -3.3 4.3 -4.8 5.5 l-2.8 2.1 -137.7 0.2 c-113 0.2 -138.2 0 -140.7 -1.1z m258.5 -92.6 c0 -35.2 -0.4 -64 -0.8 -64 -0.5 0 -25.6 22.5 -55.8 50 -42.5 38.7 -55.7 50.2 -58.6 51 -8 2.2 -7.4 2.6 -66.3 -51 -30.3 -27.5 -55.3 -50 -55.7 -50 -0.5 0 -0.8 28.8 -0.8 64 l0 64 119 0 119 0 0 -64z m-75.9 -36.6 c23.3 -21.2 44.4 -40.5 46.9 -43 l4.5 -4.4 -94.3 0 c-51.9 0 -94.2 0.4 -94 0.8 0.5 1.3 92.8 85.2 93.7 85.2 0.4 0 19.8 -17.4 43.2 -38.6z"/>
 </g>
</svg>