<svg width="71" height="72" viewBox="0 0 71 72" fill="none" xmlns="http://www.w3.org/2000/svg">
    <g clip-path="url(#clip0_65_755)">
        <path
            d="M39.2928 20.3248V20.3183C39.1175 20.3205 39.137 20.3226 39.0721 20.3226C38.7453 20.3226 38.4293 20.3291 38.1155 20.3421C33.7111 20.5282 30.7719 22.0023 29.7634 24.1494C29.5058 24.697 29.3717 25.2879 29.3717 25.9134C29.3219 31.7054 42.8791 30.6687 48.9868 36.4109L48.9911 36.4153C49.1015 36.5191 49.2076 36.6231 49.3115 36.7334C49.5192 36.9499 49.7227 37.1728 49.9153 37.4109L49.9196 37.4152C50.0842 37.6295 50.2486 37.8394 50.3958 38.0667C51.3438 39.4974 51.9086 41.2528 51.9086 43.4583C51.9086 47.3955 50.4585 50.7417 47.8376 53.3065C46.79 54.3346 45.5585 55.2372 44.1518 55.9991C41.5871 57.393 38.4552 58.3259 34.8733 58.7176C33.9275 58.828 32.9493 58.9189 31.9385 58.9189H31.8953C31.8758 58.9189 31.852 58.9211 31.8303 58.9146C31.7481 58.9189 31.6637 58.9125 31.5771 58.9168C31.3607 58.9211 31.1443 58.9276 30.9191 58.9276C23.5085 58.9276 18.4397 56.7156 14.6067 53.8585L17.3316 51.5772C21.4914 54.629 26.5645 50.4798 31.9602 50.4798C32.2177 50.4798 32.4644 50.4754 32.7134 50.4646C34.7262 50.404 36.4511 50.0837 37.8211 49.5404C40.0915 48.64 41.3836 47.1271 41.3836 45.1509C41.3836 39.0688 25.6512 40.7896 20.4655 33.0755C19.4418 31.5539 18.8293 29.6644 18.8293 27.277C18.8293 18.2946 26.3438 12.364 38.1155 11.9008C38.4445 11.8857 38.7777 11.877 39.1154 11.8748V11.8705L39.518 11.8726C39.5548 11.8705 39.5915 11.8705 39.6283 11.8705C39.6738 11.8705 39.7192 11.8726 39.7668 11.8726L40.3902 11.8748L57.6419 11.9376V20.3053L41.4074 20.3205L39.2928 20.3248Z"
            fill="url(#paint0_linear_65_755)" />
        <path d="M32.8973 18.5865H44.2902L35.7347 62.0658H24.3418L32.8973 18.5865Z" fill="#50B8E9" />
        <path
            d="M50.3981 38.0706C50.2487 37.8434 50.0907 37.6248 49.9241 37.417L49.9197 37.4127C49.7271 37.1746 49.5237 36.9516 49.3159 36.7352C49.212 36.627 49.1038 36.5231 48.9934 36.4192C50.7509 48.7522 35.8799 50.1331 35.8799 50.1331C34.5141 50.3452 34.7565 50.4058 32.7437 50.4664L32.7178 50.4534H13.6697C13.5528 50.4534 13.4381 50.4599 13.3233 50.4708L9.11596 50.4664C8.75236 50.4642 8.43202 50.7326 8.43202 51.0638V51.0724C8.43202 51.4014 8.7502 51.672 9.1138 51.672L9.81502 51.6742C10.1786 51.6742 10.5141 51.9447 10.5141 52.2737V52.2824C10.5141 52.6114 10.1873 52.8798 9.82366 52.8798L7.53382 52.8733C7.17022 52.8711 6.87154 53.1395 6.87154 53.4706V53.4793C6.87154 53.8083 7.15294 54.0789 7.51438 54.0789L8.31946 54.081C8.68306 54.081 8.95144 54.3516 8.95144 54.6806V54.6892C8.95144 55.0182 8.67226 55.2866 8.30866 55.2866L5.82619 55.2801C5.46258 55.278 5.18122 55.5485 5.18122 55.8776V55.8862C5.18122 56.2152 5.46907 56.4857 5.83268 56.4857L6.47116 56.4879C6.83476 56.4879 7.13128 56.7585 7.13128 57.0874V57.0918C7.13128 57.4207 6.82612 57.6891 6.46468 57.6891L3.76792 57.6805C3.40432 57.6783 3.10132 57.9489 3.10132 58.2779V58.2866C3.10132 58.6155 3.39783 58.8861 3.76143 58.8861L13.2866 58.8991C13.3233 58.8991 13.358 58.9012 13.3948 58.9012L30.0449 58.9185L31.5729 58.9207H31.7676C31.8456 58.9207 31.9213 58.9142 31.9971 58.9012C32.9862 58.8991 33.9471 58.819 34.8734 58.7107C38.4554 58.319 41.5871 57.3904 44.154 55.9966C45.5586 55.2346 46.7966 54.3343 47.8398 53.3062C50.4608 50.7435 51.9109 47.3994 51.9109 43.4623C51.9109 41.2567 51.3482 39.5013 50.3981 38.0706Z"
            fill="url(#paint1_linear_65_755)" />
        <path
            d="M70.7219 12.5182C70.7219 12.1893 70.4273 11.9187 70.0637 11.9187L69.0899 11.9165C68.7263 11.9165 68.4299 12.1849 68.4275 12.5139V12.5226C68.4275 12.8515 68.7221 13.1221 69.0857 13.1221L70.0595 13.1243C70.4231 13.1265 70.7195 12.8559 70.7219 12.5269V12.5182Z"
            fill="#0661AD" />
        <path
            d="M68.1551 14.9179C68.1551 14.5889 67.8605 14.3184 67.4969 14.3184H67.2869C66.9233 14.3162 66.6269 14.5868 66.6245 14.9157V14.9244C66.6245 15.2534 66.9191 15.524 67.2827 15.524H67.4927C67.8563 15.5261 68.1527 15.2577 68.1551 14.9265V14.9179Z"
            fill="#0661AD" />
        <path
            d="M69.1786 17.334C69.1786 17.005 68.8846 16.7345 68.521 16.7345L65.6404 16.7258C65.2768 16.7258 64.9804 16.992 64.978 17.3232V17.3318C64.978 17.6609 65.2726 17.9314 65.6362 17.9314L68.5168 17.94C68.8804 17.94 69.1768 17.6738 69.1786 17.3427V17.334Z"
            fill="#0661AD" />
        <path
            d="M65.7786 19.7333C65.7786 19.4043 65.484 19.1338 65.1204 19.1338L64.0344 19.1294C63.6708 19.1272 63.3738 19.3978 63.3738 19.7268V19.7355C63.3738 20.0644 63.6684 20.335 64.032 20.335L65.1186 20.3372C65.4822 20.3394 65.7786 20.0688 65.781 19.7398L65.7786 19.7333Z"
            fill="#0661AD" />
        <path
            d="M0.100098 58.2801C0.100098 58.6091 0.394444 58.8797 0.758052 58.8797L1.73199 58.8818C2.0956 58.8818 2.3921 58.6134 2.39427 58.2845V58.2758C2.39427 57.9468 2.09992 57.6762 1.73632 57.6762L0.762378 57.6741C0.398774 57.6719 0.102262 57.9425 0.100098 58.2714V58.2801Z"
            fill="#50B8E9" />
        <path
            d="M2.6665 55.8802C2.6665 56.2092 2.96085 56.4798 3.32446 56.4798H3.5344C3.898 56.482 4.19451 56.2114 4.19667 55.8824V55.8738C4.19667 55.5448 3.90233 55.2742 3.53872 55.2742H3.32878C2.96518 55.272 2.66867 55.5405 2.6665 55.8716V55.8802Z"
            fill="#50B8E9" />
        <path
            d="M1.64209 53.467C1.64209 53.796 1.93643 54.0665 2.30004 54.0665L5.18074 54.0752C5.54435 54.0752 5.84085 53.809 5.84302 53.4778V53.4692C5.84302 53.1401 5.54867 52.8696 5.18507 52.8696L2.30437 52.861C1.94076 52.861 1.64426 53.1272 1.64209 53.4583V53.467Z"
            fill="#50B8E9" />
        <path
            d="M5.04318 51.0631C5.04318 51.3921 5.33753 51.6627 5.70113 51.6627L6.78763 51.667C7.15123 51.6691 7.44775 51.3986 7.44775 51.0696V51.061C7.44775 50.7319 7.15339 50.4614 6.78979 50.4614L5.7033 50.4592C5.33969 50.4571 5.04318 50.7276 5.04102 51.0567L5.04318 51.0631Z"
            fill="#50B8E9" />
        <path
            d="M34.8936 5.73361C34.8936 2.52806 37.4215 0 41.2437 0C44.6351 0 46.9163 2.09734 46.9163 4.80938C46.9163 8.32446 44.3256 10.7291 40.5034 10.7291C37.1141 10.727 34.8936 8.50842 34.8936 5.73361Z"
            fill="#50B8E9" />
        <path
            d="M67.3354 11.9035L39.9849 11.8667C39.933 11.8667 39.8875 11.871 39.8378 11.8753H39.7641C39.7187 11.8753 39.6732 11.8732 39.6278 11.8732C39.591 11.8732 39.5542 11.8732 39.5174 11.8753L39.1149 11.8732V11.8775C38.7253 11.8818 38.4656 11.8905 38.0738 11.9035V11.9056C26.3714 12.3862 18.8374 18.3124 18.8374 27.2797C18.8374 29.6671 19.3395 31.6086 21.1077 33.9094C21.0861 28.693 25.0728 20.7734 38.0738 20.2518V20.3427C38.4634 20.3296 38.6993 20.3232 39.0261 20.3232C39.0911 20.3232 39.1127 20.3188 39.2426 20.3188V20.3253L41.3831 20.3232L51.6441 20.3145L61.972 20.3232C62.3356 20.3253 62.6452 20.0569 62.6452 19.7258V19.7171C62.6452 19.3881 62.3446 19.1176 61.981 19.1176L61.336 19.1154C60.9724 19.1154 60.6952 18.8449 60.6952 18.5158V18.5072C60.6952 18.1782 60.9742 17.9098 61.336 17.9098L63.5848 17.9163C63.9484 17.9185 64.2058 17.6479 64.2058 17.3189V17.3103C64.2058 16.9813 63.9418 16.7107 63.5782 16.7107L62.7646 16.7086C62.401 16.7086 62.1238 16.438 62.1238 16.109V16.1004C62.1238 15.7714 62.4202 15.5029 62.7838 15.5029L65.2576 15.5095C65.6212 15.5116 65.8942 15.241 65.8942 14.9121V14.9034C65.8942 14.5744 65.6212 14.3038 65.26 14.3038L64.6126 14.3017C64.249 14.3017 63.9436 14.0311 63.9436 13.7022V13.6978C63.9436 13.3688 64.264 13.1004 64.6276 13.1004L67.3156 13.1091C67.6792 13.1091 67.9738 12.8407 67.9738 12.5117V12.5031C67.978 12.1762 67.6966 11.9056 67.3354 11.9035Z"
            fill="url(#paint2_linear_65_755)" />
        <path
            d="M3.61336 64.3926C3.36133 64.4502 3.08305 64.6554 2.94654 64.881C2.79952 65.1174 2.81002 65.5794 2.96754 65.805C3.16181 66.099 3.39284 66.1992 3.84439 66.1992C4.31695 66.1938 4.61624 66.0624 4.81051 65.763C5.17281 65.2116 4.96278 64.5972 4.35371 64.4136C4.05967 64.3242 3.91791 64.3242 3.61336 64.3926Z"
            fill="#0661AD" />
        <path
            d="M28.339 64.9764C28.3285 65.013 28.2235 65.5279 28.1027 66.1213C27.8139 67.5493 27.8664 67.4287 27.6354 67.2079C27.3414 66.9193 27.0001 66.7878 26.454 66.7614C25.5981 66.7194 24.9523 66.9613 24.3747 67.5391C23.7657 68.1481 23.5084 68.8519 23.5452 69.7969C23.5662 70.2853 23.5872 70.4005 23.7342 70.7053C24.149 71.6029 25.0259 72.081 25.9972 71.9442C26.3385 71.892 26.7848 71.7079 26.9791 71.5243C27.1313 71.3827 27.1523 71.3982 27.0998 71.619C27.0736 71.7288 27.0526 71.8339 27.0526 71.8549C27.0526 71.8813 27.4254 71.8975 27.8874 71.8975H28.7171L29.4101 68.442C29.7882 66.5467 30.098 64.9765 30.098 64.9501C30.098 64.9291 29.7094 64.9135 29.2316 64.9135C28.5805 64.9135 28.3547 64.929 28.339 64.9764ZM27.0421 68.2585C27.6932 68.5627 27.6354 69.8389 26.9475 70.3483C26.601 70.6003 26.0077 70.6213 25.6926 70.3903C25.4354 70.1905 25.3514 70.0224 25.3304 69.6444C25.2674 68.5524 26.1442 67.8433 27.0421 68.2585Z"
            fill="#0661AD" />
        <path
            d="M41.2752 64.9224C41.27 64.9332 40.9549 66.498 40.5769 68.4042L39.8838 71.8698L40.7501 71.8854C41.2227 71.8908 41.6165 71.8908 41.627 71.88C41.6428 71.8644 43.0131 65.0118 43.0131 64.9434C43.0131 64.917 41.291 64.896 41.2752 64.9224Z"
            fill="#0661AD" />
        <path
            d="M50.4696 64.9248C50.4696 64.9302 50.1651 66.474 49.787 68.3484C49.4143 70.2228 49.1045 71.7876 49.1045 71.8248C49.1045 71.877 49.2988 71.8926 49.9446 71.8926C50.6429 71.8926 50.7847 71.8824 50.7847 71.814C50.7847 71.7774 50.811 71.6196 50.8425 71.4726L50.9002 71.205L51.1207 71.4414C51.4988 71.8506 52.1446 72.0348 52.8744 71.9454C54.3971 71.751 55.484 70.26 55.2635 68.6688C55.1374 67.7658 54.6072 67.104 53.809 66.8364C53.2683 66.6522 52.4124 66.7626 51.9871 67.0674C51.8978 67.1304 51.8191 67.1724 51.8086 67.1616C51.7981 67.1514 51.8821 66.684 51.9976 66.1218C52.1079 65.5602 52.2023 65.0562 52.2023 65.0034C52.2023 64.914 52.1394 64.9092 51.336 64.9092C50.8582 64.9092 50.4696 64.914 50.4696 64.9248ZM52.8114 68.1696C53.473 68.3376 53.704 69.12 53.3208 69.8922C53.1527 70.2282 52.8167 70.491 52.4911 70.5432C52.2286 70.5852 51.8243 70.4958 51.6458 70.3596C51.4515 70.2018 51.3097 69.8658 51.3097 69.5508C51.3097 68.8524 51.6878 68.3064 52.2811 68.1594C52.5121 68.1066 52.5541 68.1066 52.8114 68.1696Z"
            fill="#0661AD" />
        <path
            d="M62.8668 68.3622C62.4888 70.263 62.1792 71.8332 62.1792 71.859C62.1792 71.88 62.5728 71.8908 63.0558 71.8854L63.9324 71.8698L64.5942 68.5614C64.962 66.7398 65.2716 65.175 65.2926 65.0802L65.3292 64.9122H64.4418H63.5598L62.8668 68.3622Z"
            fill="#0661AD" />
        <path
            d="M7.75532 65.2314C6.22736 65.4312 5.33476 66.219 5.27175 67.4214C5.24549 67.92 5.32951 68.2194 5.58679 68.508C5.89657 68.865 6.19586 68.9964 7.67654 69.4482C8.18588 69.6006 8.34338 69.6948 8.41688 69.8892C8.49566 70.0884 8.3906 70.2828 8.13332 70.4298C7.9496 70.53 7.81832 70.5558 7.38776 70.572C6.73142 70.5978 6.11186 70.4616 5.51853 70.1676L5.10898 69.9624L4.76243 70.614C4.57341 70.971 4.42114 71.286 4.42114 71.307C4.42114 71.3754 4.77819 71.5536 5.19824 71.706C5.74955 71.9004 6.38486 72 7.10948 72C8.88416 72 10.0236 71.2914 10.2546 70.0308C10.3754 69.3798 10.1601 68.844 9.63506 68.4768C9.37772 68.298 9.1835 68.2248 7.92332 67.8468C7.27226 67.6524 7.09898 67.5264 7.09898 67.2582C7.09898 67.1166 7.14098 67.038 7.28276 66.9168C7.51904 66.7068 7.75532 66.6438 8.33288 66.6438C8.89472 66.6438 9.3515 66.744 9.78206 66.9588L10.0971 67.1166L10.4121 66.4548C10.5801 66.0876 10.7219 65.7726 10.7219 65.7516C10.7219 65.6778 9.97634 65.3946 9.56678 65.31C9.04694 65.205 8.2121 65.1684 7.75532 65.2314Z"
            fill="#0661AD" />
        <path
            d="M36.7394 65.2098C35.6893 65.3358 35.1012 65.562 34.3871 66.108C33.1269 67.0686 32.6229 69.0852 33.3002 70.461C33.6415 71.154 34.4606 71.742 35.3374 71.9208C35.8205 72.0204 36.7446 72.0204 37.254 71.9262C37.989 71.784 38.8343 71.3796 38.8921 71.1438C38.9079 71.0808 39.0339 70.4556 39.1757 69.7518L39.4277 68.4816H38.6244C37.8315 68.4816 37.8157 68.4816 37.7895 68.5968C37.7737 68.6652 37.6897 69.0696 37.6057 69.495C37.5217 69.9252 37.4377 70.293 37.4219 70.3194C37.3274 70.4712 36.356 70.5396 35.9255 70.4244C35.2377 70.2402 34.8807 69.7416 34.8754 68.9748C34.8702 67.494 36.0201 66.5172 37.4797 66.7488C37.9208 66.8166 38.2043 66.948 38.4984 67.221L38.7241 67.431L39.3805 66.9006L40.0367 66.3756L39.748 66.0972C39.4015 65.7558 39.0864 65.5668 38.6086 65.4096C38.0993 65.2362 37.2539 65.1468 36.7394 65.2098Z"
            fill="#0661AD" />
        <path
            d="M13.0644 66.8328C12.3608 67.0008 11.7202 67.4472 11.3317 68.0304C10.7541 68.9022 10.7173 70.2306 11.2582 70.9812C11.547 71.3856 12.0562 71.7114 12.6496 71.874C13.1011 71.9946 14.0568 71.9844 14.5608 71.8476C14.9074 71.7582 15.4062 71.5434 15.6529 71.3802C15.7054 71.3382 15.6529 71.223 15.3957 70.8396C15.2119 70.5666 15.0491 70.3248 15.0281 70.2984C15.0019 70.2774 14.8233 70.3356 14.6291 70.4298C14.2983 70.593 14.23 70.6086 13.768 70.6086C13.3479 70.6086 13.2324 70.5876 13.0486 70.4874C12.8071 70.3614 12.6864 70.2144 12.6128 69.9576L12.5656 69.7944H14.4505H16.3303L16.3618 69.621C16.4406 69.1542 16.4511 68.8812 16.3986 68.5608C16.241 67.6734 15.6634 67.0692 14.7393 66.828C14.3508 66.7278 13.4897 66.7278 13.0644 66.8328ZM14.4085 68.13C14.5345 68.1984 14.6448 68.319 14.7131 68.4558C14.9126 68.865 14.9494 68.8494 13.768 68.8494C12.9226 68.8494 12.7179 68.8338 12.7179 68.781C12.7179 68.697 12.9699 68.34 13.1326 68.1984C13.4109 67.9512 14.0305 67.9146 14.4085 68.13Z"
            fill="#0661AD" />
        <path
            d="M20.2632 66.8028C20.0217 66.8658 19.6804 67.0338 19.4441 67.2072L19.2709 67.344L19.3076 67.1652C19.3234 67.0656 19.3549 66.945 19.3654 66.8922C19.3916 66.8082 19.3286 66.8028 18.5515 66.8028C18.0842 66.8028 17.7061 66.8082 17.7061 66.819C17.7061 66.8238 17.4804 67.953 17.2073 69.3234C16.9343 70.6938 16.7085 71.8332 16.7085 71.8542C16.7085 71.8806 17.1023 71.8914 17.5854 71.886L18.4622 71.8704L18.7353 70.5156C19.0293 69.0558 19.1606 68.6826 19.4546 68.4624C20.0007 68.058 20.6833 68.1684 20.8513 68.6826C20.9143 68.8926 20.9038 68.9928 20.6465 70.2846C20.4995 71.0406 20.363 71.7126 20.3472 71.7756L20.321 71.8962H21.2083H22.0904L22.395 70.3632C22.7363 68.6358 22.7678 68.2104 22.5892 67.7376C22.4632 67.3962 22.1377 67.0656 21.7754 66.8976C21.5706 66.8082 21.3974 66.777 20.9878 66.7662C20.699 66.7608 20.3735 66.777 20.2632 66.8028Z"
            fill="#0661AD" />
        <path
            d="M45.1505 66.8538C43.8903 67.2264 43.1133 68.151 42.9873 69.4266C42.9453 69.8262 43.0503 70.398 43.2236 70.7394C43.6173 71.517 44.4994 71.958 45.6493 71.958C46.2846 71.958 46.5944 71.8896 47.1563 71.622C47.8756 71.2806 48.4217 70.6296 48.6527 69.852C48.7787 69.4218 48.7682 68.6184 48.6264 68.235C48.4007 67.6152 47.9334 67.1742 47.2403 66.9066C46.7835 66.7278 45.6704 66.7014 45.1505 66.8538ZM46.4842 68.2506C46.689 68.3556 46.8885 68.6184 46.9305 68.8284C46.983 69.1224 46.9253 69.6474 46.8045 69.873C46.5787 70.314 46.1849 70.5558 45.7124 70.5504C45.119 70.5402 44.783 70.1778 44.7882 69.5526C44.7935 68.8542 45.1032 68.3664 45.6546 68.1876C45.9014 68.109 46.2689 68.1354 46.4842 68.2506Z"
            fill="#0661AD" />
        <path
            d="M57.7685 66.8418C57.2854 67.0044 57.0229 67.1676 56.6606 67.5294C55.9938 68.1966 55.6787 69.1416 55.8205 70.0608C55.9255 70.722 56.2038 71.2104 56.6711 71.5572C57.38 72.0768 58.4616 72.093 59.1547 71.5938L59.4119 71.4102L59.3752 71.6514L59.3384 71.8986L60.1626 71.883L60.9924 71.8668L61.5018 69.3306L62.0058 66.7998H61.1238H60.2418L60.1836 67.0884L60.1206 67.3824L59.9108 67.1886C59.5537 66.8682 59.2912 66.7788 58.6349 66.7632C58.1833 66.7524 57.9943 66.768 57.7685 66.8418ZM59.2912 68.244C59.6167 68.4168 59.7637 68.6952 59.7637 69.1626C59.7637 70.0764 59.0917 70.6962 58.2883 70.5228C57.7528 70.407 57.485 69.9084 57.6058 69.2466C57.7423 68.5116 58.2673 68.0706 58.9237 68.1492C59.0549 68.1648 59.2177 68.2068 59.2912 68.244Z"
            fill="#0661AD" />
        <path
            d="M2.22185 69.2813C1.94882 70.6463 1.71779 71.7965 1.70204 71.8331C1.68629 71.8805 1.88056 71.8961 2.5684 71.8961H3.4505L3.94406 69.4127C4.2171 68.0525 4.44812 66.9029 4.46388 66.8657C4.47963 66.8189 4.28536 66.8027 3.59752 66.8027H2.71541L2.22185 69.2813Z"
            fill="#0661AD" />
    </g>
    <defs>
        <linearGradient id="paint0_linear_65_755" x1="14.6093" y1="35.403" x2="57.6431" y2="35.403"
            gradientUnits="userSpaceOnUse">
            <stop stop-color="#50B8E9" />
            <stop offset="0.7246" stop-color="#0661AD" />
        </linearGradient>
        <linearGradient id="paint1_linear_65_755" x1="3.10129" y1="47.671" x2="51.912" y2="47.671"
            gradientUnits="userSpaceOnUse">
            <stop stop-color="#50B8E9" />
            <stop offset="0.7246" stop-color="#0661AD" />
        </linearGradient>
        <linearGradient id="paint2_linear_65_755" x1="18.8387" y1="22.8893" x2="67.9786" y2="22.8893"
            gradientUnits="userSpaceOnUse">
            <stop stop-color="#50B8E9" />
            <stop offset="0.7246" stop-color="#0661AD" />
        </linearGradient>
        <clipPath id="clip0_65_755">
            <rect width="70.8" height="72" fill="white" transform="translate(0.100098)" />
        </clipPath>
    </defs>
</svg>