
<svg width="34" height="32" viewBox="0 0 34 32" fill="none" xmlns="http://www.w3.org/2000/svg">
<path fill-rule="evenodd" clip-rule="evenodd" d="M24.4 0.971428C22.8143 1.18571 21.1714 1.68571 19.8857 2.32857C17.2429 3.65714 15.4429 5.85714 14.8143 8.51428C14.5857 9.5 14.5857 11.4 14.8143 12.2714C15.3 14.1 16.6 15.7143 18.8286 17.2571C19.2 17.5143 20.2429 18.1286 21.1571 18.6429C22.0714 19.1571 23.1 19.8 23.4429 20.0857C24.8571 21.2429 25.2 22.5857 24.4857 24.0714C24.0429 24.9857 22.8429 25.7 21.2857 25.9714C20.5143 26.1 20.1571 26.1143 19.0286 26.0143C17.3429 25.8714 16.1429 25.5714 14.4143 24.8429C13.6714 24.5286 13.0429 24.2857 13.0286 24.3143C12.9571 24.3857 11 29.2857 11 29.3857C11 29.7286 13.7429 30.8429 15.3714 31.1714C17.9143 31.6857 21.5 31.6286 23.8429 31.0286C27.0571 30.2143 29.6143 28.2428 30.8143 25.6286C31.4286 24.3 31.6 23.4429 31.6 21.6571C31.6 20.2 31.5714 20 31.3286 19.2714C30.9714 18.2 30.4571 17.3571 29.6 16.4429C28.7429 15.5286 28.0429 15.0286 25.3857 13.4571C21.9571 11.4286 21.3 10.7143 21.4429 9.22857C21.5429 8.27143 22.1857 7.44286 23.2429 6.92857C24.1286 6.51428 24.9857 6.38571 26.6286 6.45714C28.1571 6.52857 28.7857 6.65714 30.4286 7.27143C30.9857 7.48571 31.4714 7.62857 31.5 7.6C31.5571 7.52857 33.4286 2.54286 33.4286 2.42857C33.4286 2.28571 32.0714 1.68571 31.2286 1.45714C29.8 1.07143 28.8429 0.942856 26.9286 0.914285C25.8857 0.885713 24.7571 0.914285 24.4 0.971428Z" fill="white"/>
<path fill-rule="evenodd" clip-rule="evenodd" d="M7.44274 4.42858C6.37131 4.65715 5.35702 5.47144 4.85702 6.50001C4.61417 7.00001 4.5856 7.17144 4.57131 8.05715C4.57131 8.94287 4.59988 9.1143 4.85702 9.67144C5.1856 10.3857 5.9856 11.2 6.65702 11.5C8.57131 12.3429 10.7713 11.5143 11.657 9.62858C11.8856 9.14287 11.9142 8.94287 11.9142 8.12858C11.9142 7.30001 11.8856 7.1143 11.6285 6.55715C10.9285 5.00001 9.09988 4.08573 7.44274 4.42858ZM4.37131 13.0429C4.0856 13.2286 4.17131 12.8143 2.0856 24.0286C1.67131 26.2714 1.25702 28.5286 1.15702 29.0714L0.985596 30.0429H4.34274C6.1856 30.0429 7.69988 30.0143 7.69988 30C7.69988 29.9714 8.44274 26.1572 9.34274 21.5286C10.2427 16.9 10.9856 13.0714 10.9856 13.0429C10.9856 12.9429 4.51417 12.9572 4.37131 13.0429Z" fill="white"/>
</svg>
