<svg width="100" height="33" viewBox="0 0 100 33" fill="none" xmlns="http://www.w3.org/2000/svg">
    <g clip-path="url(#clip0_117_556)">
        <path fill-rule="evenodd" clip-rule="evenodd"
            d="M93.5 0.542867C93.4429 0.800009 93.0286 2.95715 92.5857 5.32858C92.1428 7.70001 91.7571 9.65715 91.7429 9.68572C91.7286 9.70001 91.2286 9.64287 90.6429 9.54287C87.4 9.00001 83.8714 9.82858 81.0857 11.8C78.4143 13.6857 76.2857 17.0143 75.5429 20.4571C74.3714 25.8857 76.1286 30.4143 79.9143 31.6571C80.5571 31.8714 80.8286 31.9 82.0857 31.9C83.4428 31.9 83.5714 31.8714 84.4714 31.5714C84.9857 31.4 85.7143 31.0714 86.1 30.8429C86.8429 30.4 88.0286 29.3286 88.6143 28.5714C88.8143 28.3 89 28.1 89.0143 28.1143C89.0428 28.1429 88.8857 30.3571 88.7857 31.0286L88.7286 31.4571H91.6571H94.5857L94.6429 30.9429C94.6714 30.6571 94.7429 29.9286 94.8 29.3286C95.1 26.0714 95.2571 25.1286 97.2286 14.8286C97.9 11.2857 98.8 6.58572 99.2143 4.40001C99.6286 2.21429 99.9857 0.357152 100.014 0.257152C100.071 0.10001 99.8714 0.0857239 96.8429 0.0857239H93.6143L93.5 0.542867ZM23.4 0.971438C21.8143 1.18572 20.1714 1.68572 18.8857 2.32858C16.2429 3.65715 14.4429 5.85715 13.8143 8.51429C13.5857 9.50001 13.5857 11.4 13.8143 12.2714C14.3 14.1 15.6 15.7143 17.8286 17.2572C18.2 17.5143 19.2429 18.1286 20.1571 18.6429C21.0714 19.1571 22.1 19.8 22.4429 20.0857C23.8571 21.2429 24.2 22.5857 23.4857 24.0714C23.0429 24.9857 21.8429 25.7 20.2857 25.9714C19.5143 26.1 19.1571 26.1143 18.0286 26.0143C16.3429 25.8714 15.1429 25.5714 13.4143 24.8429C12.6714 24.5286 12.0429 24.2857 12.0286 24.3143C11.9571 24.3857 10 29.2857 10 29.3857C10 29.7286 12.7429 30.8429 14.3714 31.1714C16.9143 31.6857 20.5 31.6286 22.8429 31.0286C26.0571 30.2143 28.6143 28.2429 29.8143 25.6286C30.4286 24.3 30.6 23.4429 30.6 21.6571C30.6 20.2 30.5714 20 30.3286 19.2714C29.9714 18.2 29.4571 17.3571 28.6 16.4429C27.7429 15.5286 27.0429 15.0286 24.3857 13.4572C20.9571 11.4286 20.3 10.7143 20.4429 9.22858C20.5429 8.27144 21.1857 7.44287 22.2429 6.92858C23.1286 6.51429 23.9857 6.38572 25.6286 6.45715C27.1571 6.52858 27.7857 6.65715 29.4286 7.27144C29.9857 7.48572 30.4714 7.62858 30.5 7.60001C30.5571 7.52858 32.4286 2.54287 32.4286 2.42858C32.4286 2.28572 31.0714 1.68572 30.2286 1.45715C28.8 1.07144 27.8429 0.942867 25.9286 0.914295C24.8857 0.885724 23.7571 0.914295 23.4 0.971438ZM43.4429 9.50001C41.6286 9.75715 39.6 10.5286 38.1714 11.4857C37.3571 12.0429 35.9429 13.4 35.2571 14.3C33.6714 16.3714 32.6143 19.2286 32.4571 21.8L32.4 22.8429L33.5857 21.2571C35.4857 18.7143 36.8571 17.3714 39.0571 15.8572C39.7 15.4143 40.3286 14.9429 40.4429 14.8143L40.6571 14.5857L39.7143 13.5714C39.0286 12.8429 38.8143 12.5572 38.9571 12.5572C39.3143 12.5572 48.7571 13.2572 48.7857 13.2857C48.8 13.3 47.5286 15.1714 45.9571 17.4429C44.3857 19.7143 43.0857 21.5286 43.0714 21.4857C43.0571 21.4429 42.9429 20.8 42.8143 20.0571C42.6857 19.3143 42.5571 18.6714 42.5286 18.6429C42.4571 18.5714 41.7714 18.9571 40.8143 19.6143C39.9571 20.2 37.6 22.5857 36.6 23.8714C35.8571 24.8286 34.3286 27.1 33.9714 27.7714C33.7714 28.1286 33.7714 28.1429 33.9571 28.4857C34.2429 29.0143 35.5857 30.2429 36.3571 30.6714C38.0714 31.6286 39.6857 31.9429 42.4857 31.8714C45.1857 31.8 47 31.4571 49.0857 30.5857L49.8 30.2857V29.7714C49.8 29.1286 49.4571 25.7429 49.3857 25.6857C49.3571 25.6571 49 25.7714 48.6 25.9429C47.0286 26.5857 45.2429 26.9286 43.4143 26.9286C41.5429 26.9286 40.3 26.4857 39.4429 25.5429C38.9714 25.0143 38.5857 24.0714 38.5857 23.4571V23.1714H39.9571C42.9 23.1714 45.5143 22.8286 47.4571 22.1714C48.7571 21.7429 49.4571 21.3857 50.3286 20.7C51.8286 19.5429 52.6714 17.5857 52.5571 15.6143C52.3714 12.5 50.6286 10.4857 47.4143 9.65715C46.4571 9.44287 44.5143 9.35715 43.4429 9.50001ZM66.3571 9.55715C64.5143 9.88572 63.0714 10.7143 61.5429 12.3286C60.5429 13.3714 60.5429 13.3714 60.6 13C60.8714 10.8857 60.9857 9.88572 60.9429 9.84287C60.8571 9.75715 55.3857 9.80001 55.3286 9.88572C55.3 9.92858 55.1571 10.7 55.0143 11.6C54.6429 13.9714 53.9714 17.7429 53.1143 22.2143C52.5 25.4286 52.0429 27.8857 51.4429 31.1714L51.4 31.4429H54.6H57.8L58.0714 29.9286C59.5714 21.7429 60.0857 19.4571 60.7143 18.2286C61.4571 16.7571 62.7 15.3143 63.6429 14.8714C64.1286 14.6286 65.2571 14.5 65.7143 14.6143C66.2 14.7286 66.7429 15.3429 66.9286 15.9429C67.1143 16.6 67.0714 18.2571 66.8286 19.5857C66.7429 20.0286 66.4571 21.5857 66.1714 23.0571C64.9 29.7 64.6 31.3857 64.6429 31.4714C64.7 31.5714 70.7429 31.5714 70.9143 31.4714C70.9857 31.4286 71.3857 29.5571 71.8857 26.9286C72.3429 24.4714 72.8857 21.6571 73.0714 20.6857C73.6 17.9429 73.7571 16.4429 73.7 14.8857C73.6571 13.7857 73.6 13.4143 73.4 12.8143C72.8143 11.1143 71.6429 10.0143 69.9429 9.55715C69.2571 9.37144 67.3857 9.37144 66.3571 9.55715ZM90.1571 14.6143C90.6 14.8286 90.7571 14.9571 90.7429 15.1C90.7286 15.5143 89.6857 20.8 89.4571 21.6857C88.8714 23.9143 87.7143 25.6143 86.2286 26.4143C85.5143 26.8 84.4 26.8857 83.7429 26.6C82.3857 26 81.8 24.6286 81.9 22.3C82.0571 19.0286 83.7857 15.9 86.0714 14.7714C86.9429 14.3429 87.3286 14.2714 88.5143 14.3C89.4428 14.3286 89.6286 14.3572 90.1571 14.6143Z"
            fill="white" />
        <path fill-rule="evenodd" clip-rule="evenodd"
            d="M6.44286 4.42858C5.37143 4.65715 4.35715 5.47144 3.85715 6.50001C3.61429 7.00001 3.58572 7.17144 3.57143 8.05715C3.57143 8.94287 3.6 9.1143 3.85715 9.67144C4.18572 10.3857 4.98572 11.2 5.65715 11.5C7.57143 12.3429 9.77143 11.5143 10.6571 9.62858C10.8857 9.14287 10.9143 8.94287 10.9143 8.12858C10.9143 7.30001 10.8857 7.1143 10.6286 6.55715C9.92858 5.00001 8.1 4.08573 6.44286 4.42858ZM3.37143 13.0429C3.08572 13.2286 3.17143 12.8143 1.08572 24.0286C0.671432 26.2714 0.257146 28.5286 0.157146 29.0714L-0.0142822 30.0429H3.34286C5.18572 30.0429 6.7 30.0143 6.7 30C6.7 29.9714 7.44286 26.1572 8.34286 21.5286C9.24286 16.9 9.98572 13.0714 9.98572 13.0429C9.98572 12.9429 3.51429 12.9572 3.37143 13.0429Z"
            fill="white" />
    </g>
    <defs>
        <clipPath id="clip0_117_556">
            <rect width="100" height="32.0571" fill="white" />
        </clipPath>
    </defs>
</svg>